<?xml version="1.0" ?>
<svg xmlns="http://www.w3.org/2000/svg" width="24.0" height="24.0" viewBox="0 0 24.0 24.0">
	<path d="M 19.0 3.0 H 5.0 C 3.89 3.0, 3.0 3.89, 3.0 5.0 v 14.0 c 0.0 1.1046, 0.8954 2.0, 2.0 2.0 h 14.0 c 1.1046 0.0, 2.0 -0.8954, 2.0 -2.0 V 5.0 C 21.0 3.89, 20.1 3.0, 19.0 3.0 M 19.0 5.0 v 14.0 H 5.0 V 5.0 H 19.0 Z" fill="#000000" stroke="none" stroke-width="0.0" stroke-linecap="strokecap" stroke-linejoin="strokejoin" fill-rule="nonzero"/>
	<path d="M 17.9844 11.0121 H 16.3378 v 1.9759 h 0.6586 v -0.9879 h 0.9879 v 1.1197 c 0.0 0.461, -0.3293 0.8562, -0.8562 0.8562 h -0.8562 c -0.5269 0.0, -0.8562 -0.461, -0.8562 -0.8562 V 10.9462 c -0.0659 -0.461, 0.2635 -0.9221, 0.7904 -0.9221 h 0.8562 c 0.5269 0.0, 0.8562 0.461, 0.8562 0.8562 v 0.1317 H 17.9844" fill="#000000" stroke="none" stroke-width="0.0" stroke-linecap="strokecap" stroke-linejoin="strokejoin" fill-rule="nonzero"/>
	<path d="M 10.6834 10.0171 H 9.0369 v 3.9518 h 0.9879 v -1.3173 h 0.6586 c 0.5269 0.0, 0.9879 -0.461, 0.9879 -0.9879 v -0.6586 C 11.6714 10.4782, 11.2103 10.0171, 10.6834 10.0171 Z M 10.6834 11.6637 h -0.6586 v -0.6586 h 0.6586 V 11.6637 Z" fill="#000000" stroke="none" stroke-width="0.0" stroke-linecap="strokecap" stroke-linejoin="strokejoin" fill-rule="nonzero"/>
	<path d="M 7.5907 10.0241 H 6.8032 c -0.435 0.0, -0.7875 0.3526, -0.7875 0.7876 v 3.1502 h 0.7875 v -1.3103 h 0.7875 v 1.3103 h 0.7875 V 10.8117 C 8.3783 10.3767, 8.0257 10.0241, 7.5907 10.0241 Z M 6.8676 11.0121 h 0.6586 v 0.6586 H 6.8676 V 11.0121 Z" fill="#000000" stroke="none" stroke-width="0.0" stroke-linecap="strokecap" stroke-linejoin="strokejoin" fill-rule="nonzero"/>
	<path d="M 14.7095 13.981 l -0.9217 0.0 l -0.6145 -1.6487 l 0.0 1.6487 l -0.9217 0.0 l 0.0 -3.9569 l 0.9217 0.0 l 0.6145 1.6487 l 0.0 -1.6487 l 0.9217 0.0 l 0.0 3.9569" fill="#000000" stroke="none" stroke-width="0.0" stroke-linecap="strokecap" stroke-linejoin="strokejoin" fill-rule="nonzero"/>
</svg>
