<?xml version="1.0" ?>
<svg xmlns="http://www.w3.org/2000/svg" width="24.0" height="24.0" viewBox="0 0 960.0 960.0">
	<path d="M 120 520 L 120 200 Q 120 167, 143.5 143.5 Q 167 120, 200 120 L 440 120 L 440 520 L 120 520 Z M 360 440 L 360 440 L 360 440 L 360 440 L 360 440 Q 360 440, 360 440 Q 360 440, 360 440 Z M 520 120 L 760 120 Q 793 120, 816.5 143.5 Q 840 167, 840 200 L 840 360 L 520 360 L 520 120 Z M 520 840 L 520 440 L 840 440 L 840 760 Q 840 793, 816.5 816.5 Q 793 840, 760 840 L 520 840 Z M 120 600 L 440 600 L 440 840 L 200 840 Q 167 840, 143.5 816.5 Q 120 793, 120 760 L 120 600 Z M 360 680 L 360 680 L 360 680 L 360 680 L 360 680 Q 360 680, 360 680 Q 360 680, 360 680 Z M 600 280 L 600 280 L 600 280 L 600 280 L 600 280 Q 600 280, 600 280 Q 600 280, 600 280 Z M 600 520 Q 600 520, 600 520 Q 600 520, 600 520 L 600 520 L 600 520 L 600 520 Z M 200 440 L 360 440 L 360 200 L 200 200 Q 200 200, 200 200 Q 200 200, 200 200 L 200 440 Z M 600 280 L 760 280 L 760 200 Q 760 200, 760 200 Q 760 200, 760 200 L 600 200 L 600 280 Z M 600 520 L 600 760 L 760 760 Q 760 760, 760 760 Q 760 760, 760 760 L 760 520 L 600 520 Z M 200 680 L 200 760 Q 200 760, 200 760 Q 200 760, 200 760 L 360 760 L 360 680 L 200 680 Z" fill="#000000" stroke="none"/>
</svg>
