<?xml version="1.0" ?>
<svg xmlns="http://www.w3.org/2000/svg" width="24.0" height="24.0" viewBox="0 0 960.0 960.0">
	<path d="M 200 840 Q 183 840, 171.5 828.5 Q 160 817, 160 800 L 160 703 Q 160 687, 166 672.5 Q 172 658, 183 647 L 687 144 Q 699 132, 714 126 Q 729 120, 744 120 Q 760 120, 774.5 126 Q 789 132, 800 144 L 856 200 Q 868 211, 874 225.5 Q 880 240, 880 256 Q 880 271, 874 286 Q 868 301, 856 313 L 353 817 Q 342 828, 327.5 834 Q 313 840, 297 840 L 200 840 Z M 240 760 L 296 760 L 689 368 L 661 339 L 632 311 L 240 704 L 240 760 Z M 800 257 L 800 257 L 743 200 L 743 200 L 800 257 Z M 661 339 L 632 311 L 632 311 L 689 368 L 689 368 L 661 339 Z M 560 840 Q 634 840, 697 803 Q 760 766, 760 700 Q 760 668, 744 644.5 Q 728 621, 702 601 Q 688 591, 672 591 Q 656 591, 645 603 Q 634 615, 634 632.5 Q 634 650, 648 660 Q 662 671, 671 680 Q 680 689, 680 700 Q 680 723, 643.5 741.5 Q 607 760, 560 760 Q 543 760, 531.5 771.5 Q 520 783, 520 800 Q 520 817, 531.5 828.5 Q 543 840, 560 840 Z M 360 240 Q 360 254, 342.5 265.5 Q 325 277, 262 306 Q 182 341, 151 369.5 Q 120 398, 120 440 Q 120 466, 132 486 Q 144 506, 163 521 Q 176 532, 192 530.5 Q 208 529, 219 516 Q 230 503, 229 487 Q 228 471, 215 460 Q 208 455, 204 450 Q 200 445, 200 440 Q 200 428, 218 416 Q 236 404, 294 379 Q 382 341, 411 310 Q 440 279, 440 240 Q 440 185, 396 152.5 Q 352 120, 280 120 Q 235 120, 199.5 136 Q 164 152, 145 175 Q 134 188, 136 204 Q 138 220, 151 230 Q 164 241, 180 239 Q 196 237, 207 226 Q 221 212, 238 206 Q 255 200, 280 200 Q 321 200, 340.5 212 Q 360 224, 360 240 Z" fill="#000000" stroke="none"/>
</svg>
