<?xml version="1.0" ?>
<svg xmlns="http://www.w3.org/2000/svg" width="24.0" height="24.0" viewBox="0 0 960.0 960.0">
	<path d="M 420.0 600.0 h 120.0 l -23.0 -129.0 q 20.0 -10.0, 31.5 -29.0 t 11.5 -42.0 q 0.0 -33.0, -23.5 -56.5 T 480.0 320.0 q -33.0 0.0, -56.5 23.5 T 400.0 400.0 q 0.0 23.0, 11.5 42.0 t 31.5 29.0 l -23.0 129.0 Z M 480.0 880.0 q -139.0 -35.0, -229.5 -159.5 T 160.0 444.0 v -244.0 l 320.0 -120.0 l 320.0 120.0 v 244.0 q 0.0 152.0, -90.5 276.5 T 480.0 880.0 Z M 480.0 796.0 q 104.0 -33.0, 172.0 -132.0 t 68.0 -220.0 v -189.0 l -240.0 -90.0 l -240.0 90.0 v 189.0 q 0.0 121.0, 68.0 220.0 t 172.0 132.0 Z M 480.0 480.0 Z" fill="#000000" stroke="none" stroke-width="0.0" stroke-linecap="strokecap" stroke-linejoin="strokejoin" fill-rule="nonzero"/>
</svg>
