<?xml version="1.0" ?>
<svg xmlns="http://www.w3.org/2000/svg" width="24.0" height="24.0" viewBox="0 0 24.0 24.0">
	<path d="M 17.138 9.874 l -7.023 -7.023 C 9.803 2.539, 9.413 2.383, 9.023 2.383 H 3.561 C 2.702 2.383, 2 3.085, 2 3.944 v 5.462 c 0 0.39, 0.156 0.78, 0.468 1.092 l 7.023 7.023 c 0.312 0.312, 0.702 0.468, 1.092 0.468 s 0.78 -0.156, 1.092 -0.468 l 5.462 -5.462 c 0.312 -0.312, 0.468 -0.702, 0.468 -1.092 C 17.606 10.576, 17.45 10.186, 17.138 9.874 Z M 10.584 16.429 l -7.023 -7.023 V 3.944 H 9.023 l 7.023 7.023 L 10.584 16.429 Z" fill="#000000" stroke="none"/>
	<path d="M 5.322 4.724 c 0.523 0, 0.981 0.458, 0.981 0.981 S 5.845 6.686, 5.322 6.686 S 4.341 6.228, 4.341 5.705 S 4.799 4.724, 5.322 4.724" fill="#000000" stroke="none"/>
	<path d="M 9.605 12.27 l -0.576 -0.576 l 2.302 -2.302 l 0.576 0.576 l -2.302 2.302" fill="#000000" stroke="none"/>
	<path d="M 13.058 12.27 l -0.576 -0.576 l -0.384 0.384 l 0.576 0.576 l -0.576 0.576 l -0.576 -0.576 l -0.767 0.767 l -0.576 -0.576 l 2.302 -2.302 l 1.151 1.151 Z" fill="#000000" stroke="none"/>
	<path d="M 8.117 7.329 l 0.576 0.576 l 0.576 -0.576 l -0.576 -0.576 l -0.576 -0.576 l -0.904 0.904 l -0.495 0.495 l -0.904 0.904 l 0.576 0.576 l 0.576 0.576 l 0.576 -0.576 l -0.576 -0.576 l 0.192 -0.192 l 0.136 -0.136 l 0.576 0.576 l 0.495 -0.495 l -0.576 -0.576 l 0.136 -0.136 Z" fill="#000000" stroke="none"/>
	<path d="M 9.612 7.659 L 8.917 9.28 L 7.295 9.975 l 0.463 0.463 l 0.811 -0.347 l -0.347 0.811 l 0.463 0.463 l 0.695 -1.621 l 1.621 -0.695 l -0.463 -0.463 L 9.728 8.933 l 0.347 -0.811 L 9.612 7.659 Z" fill="#000000" stroke="none"/>
	<path d="M 21.886 14.399 c -0.076 -0.186, -0.182 -0.355, -0.317 -0.507 l -0.937 -0.937 c -0.152 -0.152, -0.321 -0.266, -0.507 -0.342 C 19.94 12.538, 19.746 12.5, 19.543 12.5 c -0.186 0, -0.371 0.034, -0.557 0.101 c -0.186 0.068, -0.355 0.177, -0.507 0.329 l -5.293 5.268 c -0.101 0.101, -0.177 0.215, -0.228 0.342 s -0.076 0.258, -0.076 0.393 v 1.671 c 0 0.287, 0.097 0.528, 0.291 0.722 c 0.194 0.194, 0.435 0.291, 0.722 0.291 h 1.671 c 0.135 0, 0.266 -0.025, 0.392 -0.076 c 0.127 -0.051, 0.241 -0.127, 0.342 -0.228 l 5.268 -5.268 c 0.152 -0.152, 0.262 -0.325, 0.329 -0.519 C 21.966 15.332, 22 15.142, 22 14.957 S 21.962 14.585, 21.886 14.399 Z M 15.365 20.098 H 14.402 v -0.962 l 3.09 -3.064 l 0.481 0.456 l 0.456 0.481 L 15.365 20.098 Z" fill="#000000" stroke="none"/>
</svg>
