<?xml version="1.0" ?>
<svg xmlns="http://www.w3.org/2000/svg" width="24.0" height="24.0" viewBox="0 0 24.0 24.0">
	<path d="M 22.37 11.58 l -9.45 -9.45 C 12.5 1.71, 11.975 1.5, 11.45 1.5 H 4.1 C 2.945 1.5, 2.0 2.445, 2.0 3.6 v 7.35 C 2.0 11.475, 2.21 12.0, 2.63 12.42 l 9.45 9.45 C 12.5 22.29, 13.025 22.5, 13.55 22.5 c 0.525 0.0, 1.05 -0.21, 1.47 -0.63 l 7.35 -7.35 C 22.79 14.1, 23.0 13.575, 23.0 13.05 C 23.0 12.525, 22.79 12.0, 22.37 11.58 Z M 13.55 20.4 l -9.45 -9.45 V 3.6 h 7.35 l 9.45 9.45 L 13.55 20.4 Z" fill="#000000" stroke="none" stroke-width="0.0" stroke-linecap="butt" stroke-linejoin="miter" fill-rule="nonzero"/>
	<path d="M 6.4701 4.65 c 0.704 0.0, 1.3201 0.616, 1.3201 1.3201 S 7.1741 7.2901, 6.4701 7.2901 S 5.15 6.6741, 5.15 5.9701 S 5.766 4.65, 6.4701 4.65" fill="#000000" stroke="none" stroke-width="0.0" stroke-linecap="butt" stroke-linejoin="miter" fill-rule="nonzero"/>
	<path d="M 12.233 14.8042 l -0.7744 -0.7744 l 3.0977 -3.0977 l 0.7744 0.7744 l -3.0977 3.0977" fill="#000000" stroke="none" stroke-width="0.0" stroke-linecap="butt" stroke-linejoin="miter" fill-rule="nonzero"/>
	<path d="M 16.8796 14.8042 l -0.7744 -0.7744 l -0.5163 0.5163 l 0.7744 0.7744 l -0.7744 0.7744 l -0.7744 -0.7744 l -1.0326 1.0326 l -0.7744 -0.7744 l 3.0977 -3.0977 l 1.5489 1.5489 Z" fill="#000000" stroke="none" stroke-width="0.0" stroke-linecap="butt" stroke-linejoin="miter" fill-rule="nonzero"/>
	<path d="M 10.231 8.1556 l 0.7744 0.7744 l 0.7744 -0.7744 l -0.7744 -0.7744 l -0.7744 -0.7744 l -1.2159 1.2159 l -0.666 0.666 l -1.2159 1.2159 l 0.7744 0.7744 l 0.7744 0.7744 l 0.7744 -0.7744 l -0.7744 -0.7744 l 0.2581 -0.2581 l 0.1833 -0.1833 l 0.7744 0.7744 l 0.666 -0.666 l -0.7744 -0.7744 l 0.1833 -0.1833 Z" fill="#000000" stroke="none" stroke-width="0.0" stroke-linecap="butt" stroke-linejoin="miter" fill-rule="nonzero"/>
	<path d="M 12.2426 8.5991 l -0.9351 2.1819 l -2.1819 0.9351 l 0.6234 0.6234 l 1.0909 -0.4675 l -0.4675 1.0909 l 0.6234 0.6234 l 0.9351 -2.1819 l 2.1819 -0.9351 l -0.6234 -0.6234 l -1.0909 0.4675 l 0.4675 -1.0909 L 12.2426 8.5991 Z" fill="#000000" stroke="none" stroke-width="0.0" stroke-linecap="butt" stroke-linejoin="miter" fill-rule="nonzero"/>
	<path d="M 22.3701 11.58 l -9.45 -9.45 C 12.5 1.71, 11.975 1.5, 11.45 1.5 H 4.1 C 2.945 1.5, 2.0 2.445, 2.0 3.6 v 7.35 C 2.0 11.475, 2.21 12.0, 2.63 12.42 l 9.45 9.45 C 12.5 22.29, 13.025 22.5, 13.55 22.5 c 0.525 0.0, 1.05 -0.21, 1.47 -0.63 l 7.35 -7.35 C 22.79 14.1, 23.0 13.575, 23.0 13.05 C 23.0 12.525, 22.79 12.0, 22.3701 11.58 Z M 5.15 5.9701 c 0.0 -0.704, 0.616 -1.3201, 1.3201 -1.3201 c 0.704 0.0, 1.3201 0.616, 1.3201 1.3201 c 0.0 0.704, -0.6161 1.3201, -1.3201 1.3201 C 5.7661 7.2902, 5.15 6.6741, 5.15 5.9701 Z M 7.9077 10.4789 L 7.1332 9.7044 l 1.2159 -1.2159 l 0.666 -0.666 l 1.2159 -1.2159 l 0.7744 0.7744 l 0.7745 0.7745 l -0.7745 0.7744 L 10.231 8.1556 L 9.9728 8.4137 L 9.7895 8.597 L 10.564 9.3715 l -0.666 0.666 L 9.1235 9.263 L 8.9402 9.4463 L 8.6821 9.7044 l 0.7745 0.7745 l -0.7745 0.7744 L 7.9077 10.4789 Z M 10.3724 12.9628 l 0.4676 -1.0909 l -1.0909 0.4675 l -0.6234 -0.6234 l 2.1819 -0.9351 l 0.9351 -2.1819 l 0.6234 0.6234 l -0.4675 1.0909 l 1.0909 -0.4675 l 0.6234 0.6234 l -2.1819 0.9351 l -0.9351 2.1819 L 10.3724 12.9628 Z M 11.4585 14.0297 l 3.0978 -3.0977 l 0.7744 0.7744 l -3.0977 3.0977 L 11.4585 14.0297 Z M 16.8796 14.8041 l -0.7744 -0.7744 l -0.5163 0.5163 l 0.7744 0.7744 l -0.7744 0.7745 l -0.7745 -0.7745 l -1.0325 1.0326 l -0.7745 -0.7744 l 3.0978 -3.0978 l 1.5488 1.5489 L 16.8796 14.8041 Z" fill="#000000" stroke="none" stroke-width="0.0" stroke-linecap="butt" stroke-linejoin="miter" fill-rule="nonzero"/>
</svg>
