<?xml version="1.0" ?>
<svg xmlns="http://www.w3.org/2000/svg" width="24.0" height="24.0" viewBox="0 0 24.0 24.0">
	<path d="M 7.6702 15.289 l 8.6596 0.0 l -2.7061 -3.6082 l -2.1649 2.8865 l -1.6237 -2.1649 Z" fill="#000000" stroke="none" stroke-width="0.0" stroke-linecap="butt" stroke-linejoin="miter" fill-rule="nonzero"/>
	<path d="M 12.0 3.1136 c -5.5228 0.0, -10.0 4.4772, -10.0 10.0 c 0.0 3.1172, 1.4398 5.8854, 3.6758 7.7189 l 2.6348 -2.6348 l -1.4087 -1.4088 l -1.2151 1.2151 c -0.8453 -1.0906, -1.418 -2.4037, -1.6085 -3.8388 h 1.7119 v -2.0 H 4.0599 c 0.1718 -1.465, 0.7408 -2.8074, 1.5935 -3.9208 l 1.2126 1.2126 l 1.4142 -1.4142 L 7.0601 6.8227 C 8.1728 5.9452, 9.5237 5.3609, 11.0 5.1748 v 1.7205 h 2.0 V 5.1747 c 1.4588 0.1837, 2.7955 0.7556, 3.9005 1.6158 l -1.2166 1.2166 l 1.4142 1.4142 l 1.2186 -1.2186 c 0.8701 1.1213, 1.4495 2.4799, 1.6234 3.9627 h -1.7303 v 2.0 h 1.7119 c -0.1929 1.4529, -0.776 2.7819, -1.6387 3.8804 l -1.2208 -1.2208 l -1.4142 1.4142 l 1.2112 1.2112 l 1.4319 1.4319 h 1.0E-4 l 0.0042 0.0042 l 0.0287 -0.0287 C 20.567 19.0238, 22.0 16.2367, 22.0 13.1136 C 22.0 7.5908, 17.5228 3.1136, 12.0 3.1136 Z" fill="#000000" stroke="none" stroke-width="0.0" stroke-linecap="butt" stroke-linejoin="miter" fill-rule="nonzero"/>
</svg>
