<?xml version="1.0" ?>
<svg xmlns="http://www.w3.org/2000/svg" width="24.0" height="24.0" viewBox="0 0 24.0 24.0">
	<path d="M 3.5 1.5 c -1.11 0, -2 0.89, -2 2 v 11 c 0 1.11, 0.89 2, 2 2 c 3.67 0, 7.33 0, 11 0 c 1.11 0, 2 -0.89, 2 -2 c 0 -3.67, 0 -7.33, 0 -11 c 0 -1.11, -0.89 -2, -2 -2 H 3.5 M 3.5 3.5 h 11 v 11 h -11 V 3.5 M 18.5 7.5 v 2 h 2 v 11 h -11 v -2 h -2 v 2 c 0 1.11, 0.89 2, 2 2 h 11 c 1.11 0, 2 -0.89, 2 -2 v -11 c 0 -1.11, -0.89 -2, -2 -2 H 18.5 Z" fill="#000000" stroke="none"/>
	<path d="M 10.633 9.242 l -2.292 2.95 l -1.633 -1.967 l -2.292 2.942 l 9.167 0 Z" fill="#000000" stroke="none"/>
</svg>
