<?xml version="1.0" ?>
<svg xmlns="http://www.w3.org/2000/svg" width="24.0" height="24.0" viewBox="0 0 24.0 24.0">
	<path d="M 8.6 19.9 c -1.6 -0.7, -2.9 -1.8, -3.9 -3.3 c -1.0 -1.5, -1.5 -3.1, -1.5 -5.0 c 0.0 -0.4, 0.0 -0.8, 0.1 -1.2 c 0.0 -0.4, 0.1 -0.8, 0.2 -1.1 L 2.4 10.0 L 1.5 8.4 l 4.4 -2.5 l 2.5 4.3 l -1.6 0.9 L 5.5 9.0 c -0.2 0.4, -0.3 0.8, -0.4 1.3 C 5.1 10.7, 5.0 11.1, 5.0 11.6 c 0.0 1.5, 0.4 2.8, 1.2 4.0 s 1.9 2.1, 3.2 2.7 L 8.6 19.9 Z M 15.6 8.9 V 7.0 H 18.0 c -0.7 -0.9, -1.5 -1.5, -2.5 -2.0 s -2.0 -0.7, -3.2 -0.7 c -0.8 0.0, -1.6 0.1, -2.4 0.4 C 9.2 5.0, 8.5 5.3, 7.9 5.8 L 7.0 4.2 C 7.8 3.7, 8.6 3.3, 9.5 3.0 s 1.9 -0.5, 2.9 -0.5 c 1.2 0.0, 2.4 0.2, 3.5 0.7 s 2.1 1.1, 2.9 1.9 V 3.9 h 1.8 v 5.0 H 15.6 Z M 15.0 22.5 L 10.6 20.0 l 2.5 -4.3 l 1.6 0.9 l -1.3 2.2 c 1.8 -0.3, 3.3 -1.1, 4.5 -2.4 c 1.2 -1.4, 1.8 -3.0, 1.8 -4.8 c 0.0 -0.2, 0.0 -0.3, 0.0 -0.5 s 0.0 -0.3, -0.1 -0.4 h 1.9 c 0.0 0.2, 0.0 0.3, 0.0 0.4 s 0.0 0.3, 0.0 0.5 c 0.0 2.0, -0.6 3.9, -1.8 5.5 s -2.8 2.7, -4.8 3.3 l 1.0 0.6 L 15.0 22.5 Z" fill="#000000" stroke="none" stroke-width="0.0" stroke-linecap="butt" stroke-linejoin="miter" fill-rule="nonzero"/>
	<path d="M 8.2 13.5 l 8.0 0.0 l -2.6 -3.5 l -1.9 2.5 l -1.3 -1.8 Z" fill="#000000" stroke="none" stroke-width="0.0" stroke-linecap="butt" stroke-linejoin="miter" fill-rule="nonzero"/>
</svg>
