<?xml version="1.0" ?>
<svg xmlns="http://www.w3.org/2000/svg" width="24" height="24" viewBox="0 0 24 24">
	<path d="M 11.0182 18.6079 H 5.393 V 5.4684 h 13.214 v 3.5806 v 1.5046 l 0.035 -0.0348 c 0.178 -0.178, 0.3758 -0.3066, 0.5934 -0.3857 c 0.2175 -0.0791, 0.4351 -0.1187, 0.6527 -0.1187 c 0.2104 0.0, 0.4118 0.0408, 0.6066 0.1107 V 9.5792 V 9.0491 V 5.4684 c 0.0 -1.0324, -0.84 -1.8771, -1.8877 -1.8771 H 5.393 c -1.0382 0.0, -1.8877 0.8447, -1.8877 1.8771 v 13.1395 c 0.0 1.0417, 0.8495 1.8771, 1.8877 1.8771 h 5.6252 h 0.0379 h 0.7311 v -1.8771 h -0.6839 H 11.0182 Z M 22.4588 13.8637 c -0.075 -0.1833, -0.1792 -0.35, -0.3125 -0.5 l -0.925 -0.925 c -0.15 -0.15, -0.3167 -0.2625, -0.5 -0.3375 c -0.1833 -0.075, -0.375 -0.1125, -0.575 -0.1125 c -0.1833 0.0, -0.3667 0.0333, -0.55 0.1 c -0.1833 0.0667, -0.35 0.175, -0.5 0.325 l -5.525 5.5 v 3.075 h 3.075 l 5.5 -5.5 c 0.15 -0.15, 0.2583 -0.3209, 0.325 -0.5125 c 0.0667 -0.1917, 0.1 -0.3792, 0.1 -0.5625 S 22.5338 14.0469, 22.4588 13.8637 Z M 16.0213 19.4887 h -0.95 v -0.95 l 3.05 -3.025 l 0.475 0.45 l 0.45 0.475 L 16.0213 19.4887 Z M 15.4244 13.7219 l -1.4644 -1.9469 l -2.75 3.54 l -1.96 -2.36 l -2.75 3.53 l 6.1487 0.0 Z" fill="black"/>
</svg>
