<?xml version="1.0" ?>
<svg xmlns="http://www.w3.org/2000/svg" width="24.0" height="24.0" viewBox="0 0 24.0 24.0">
	<path d="M 15.0 19.0 c 0.0 -0.5523, -0.4477 -1.0, -1.0 -1.0 h -1.0 v -2.0 h 4.0 c 1.1046 0.0, 2.0 -0.8954, 2.0 -2.0 V 4.0 c 0.0 -1.1046, -0.8954 -2.0, -2.0 -2.0 H 7.0 C 5.8954 2.0, 5.0 2.8954, 5.0 4.0 v 10.0 c 0.0 1.1046, 0.8954 2.0, 2.0 2.0 h 4.0 v 2.0 h -1.0 c -0.5523 0.0, -1.0 0.4477, -1.0 1.0 H 2.0 v 2.0 h 7.0 c 0.0 0.5523, 0.4477 1.0, 1.0 1.0 h 4.0 c 0.5523 0.0, 1.0 -0.4477, 1.0 -1.0 h 7.0 v -2.0 H 15.0 Z M 7.0 14.0 V 4.0 h 10.0 v 10.0 H 7.0 Z" fill="#000000" stroke="none" stroke-width="0.0" stroke-linecap="butt" stroke-linejoin="miter" fill-rule="nonzero"/>
	<path d="M 13.343 9.0 l -1.8843 2.4256 l -1.343 -1.6171 l -1.8843 2.4188 l 7.5373 0.0 Z" fill="#000000" stroke="none" stroke-width="0.0" stroke-linecap="butt" stroke-linejoin="miter" fill-rule="nonzero"/>
</svg>
