<?xml version="1.0" ?>
<svg xmlns="http://www.w3.org/2000/svg" width="24.0" height="24.0" viewBox="0 0 24.0 24.0">
	<path d="M 6.0 19.0 h 12.0 L 16.575 9.0 H 7.425 L 6.0 19.0 Z M 12.0 7.0 c 0.2833 0.0, 0.5208 -0.0958, 0.7125 -0.2875 S 13.0 6.2833, 13.0 6.0 s -0.0958 -0.5208, -0.2875 -0.7125 C 12.5208 5.0958, 12.2833 5.0, 12.0 5.0 s -0.5208 0.0958, -0.7125 0.2875 C 11.0958 5.4792, 11.0 5.7167, 11.0 6.0 s 0.0958 0.5208, 0.2875 0.7125 S 11.7167 7.0, 12.0 7.0 Z M 14.825 7.0 h 1.75 c 0.5 0.0, 0.9333 0.1667, 1.3 0.5 c 0.3667 0.3333, 0.5917 0.7417, 0.675 1.225 l 1.425 10.0 c 0.0833 0.6, -0.0708 1.1292, -0.4625 1.5875 C 19.1208 20.7708, 18.6167 21.0, 18.0 21.0 H 6.0 c -0.6167 0.0, -1.1208 -0.2292, -1.5125 -0.6875 s -0.5458 -0.9875, -0.4625 -1.5875 l 1.425 -10.0 C 5.5333 8.2417, 5.7583 7.8333, 6.125 7.5 c 0.3667 -0.3333, 0.8 -0.5, 1.3 -0.5 h 1.75 C 9.125 6.8333, 9.0833 6.6708, 9.05 6.5125 S 9.0 6.1833, 9.0 6.0 c 0.0 -0.8333, 0.2917 -1.5417, 0.875 -2.125 c 0.5833 -0.5833, 1.2917 -0.875, 2.125 -0.875 s 1.5417 0.2917, 2.125 0.875 S 15.0 5.1667, 15.0 6.0 c 0.0 0.1833, -0.0167 0.3542, -0.05 0.5125 S 14.875 6.8333, 14.825 7.0 Z M 6.0 19.0 h 12.0 H 6.0 Z" fill="#000000" stroke="none" stroke-width="0.0" stroke-linecap="butt" stroke-linejoin="miter" fill-rule="nonzero"/>
	<path d="M 15.2442 15.1263 c -0.1654 -0.2197, -0.4357 -0.5795, -0.6007 -0.7995 l -0.9704 -1.2938 c -0.165 -0.22, -0.435 -0.22, -0.6 0.0 l -1.275 1.7 c -0.165 0.22, -0.4354 0.2203, -0.6009 7.0E-4 l -0.7733 -1.0263 c -0.1655 -0.2196, -0.4361 -0.2195, -0.6014 2.0E-4 l -1.5239 2.0259 c -0.1653 0.2198, -0.0756 0.3996, 0.1994 0.3996 h 0.9267 c 0.275 0.0, 0.725 0.0, 1.0 0.0 h 3.1464 c 0.275 0.0, 0.725 0.0, 1.0 0.0 h 0.9308 c 0.275 0.0, 0.3647 -0.1798, 0.1993 -0.3995 L 15.2442 15.1263 Z" fill="#000000" stroke="none" stroke-width="0.0" stroke-linecap="butt" stroke-linejoin="miter" fill-rule="nonzero"/>
</svg>
