<?xml version="1.0" ?>
<svg xmlns="http://www.w3.org/2000/svg" width="24.0" height="24.0" viewBox="0 0 24.0 24.0">
	<path d="M 22.7125 5.2875 C 22.5208 5.0958, 22.2833 5.0, 22.0 5.0 h -4.0 c -0.2833 0.0, -0.5208 0.0958, -0.7125 0.2875 C 17.0958 5.4792, 17.0 5.7167, 17.0 6.0 v 3.71 c 0.1748 0.0261, 0.3466 0.0657, 0.5121 0.1337 c 0.2684 0.1104, 0.5126 0.2758, 0.7323 0.4964 L 18.9015 11.0 H 22.0 c 0.2833 0.0, 0.5208 -0.0958, 0.7125 -0.2875 C 22.9042 10.5208, 23.0 10.2833, 23.0 10.0 V 6.0 C 23.0 5.7167, 22.9042 5.4792, 22.7125 5.2875 Z M 21.0 9.0 h -2.0 V 7.0 h 2.0 V 9.0 Z" fill="#000000" stroke="none" stroke-width="0.0" stroke-linecap="butt" stroke-linejoin="miter" fill-rule="nonzero"/>
	<path d="M 19.0311 12.9148 c -0.075 -0.1833, -0.1792 -0.35, -0.3125 -0.5 l -0.925 -0.925 c -0.15 -0.15, -0.3167 -0.2625, -0.5 -0.3375 c -0.1833 -0.075, -0.375 -0.1125, -0.575 -0.1125 c -0.1833 0.0, -0.3667 0.0333, -0.55 0.1 c -0.1834 0.0667, -0.35 0.175, -0.5 0.325 l -5.525 5.5 v 3.075 h 3.075 l 5.5 -5.5 c 0.15 -0.15, 0.2583 -0.3209, 0.325 -0.5125 c 0.0667 -0.1917, 0.1 -0.3792, 0.1 -0.5625 S 19.1061 13.0981, 19.0311 12.9148 Z M 12.5936 18.5398 h -0.95 v -0.95 l 3.05 -3.025 l 0.475 0.45 l 0.45 0.475 L 12.5936 18.5398 Z" fill="#000000" stroke="none" stroke-width="0.0" stroke-linecap="butt" stroke-linejoin="miter" fill-rule="nonzero"/>
	<path d="M 8.7766 17.0 H 3.0 V 7.0 h 10.0 v 5.0583 l 2.0 -2.0101 V 7.0 c 0.0 -0.55, -0.1959 -1.0208, -0.5875 -1.4125 S 13.55 5.0, 13.0 5.0 H 3.0 C 2.45 5.0, 1.9792 5.1959, 1.5875 5.5875 S 1.0 6.45, 1.0 7.0 v 10.0 c 0.0 0.55, 0.1959 1.0208, 0.5875 1.4125 S 2.45 19.0, 3.0 19.0 h 5.1489 h 0.6277 V 17.0 Z" fill="#000000" stroke="none" stroke-width="0.0" stroke-linecap="butt" stroke-linejoin="miter" fill-rule="nonzero"/>
	<path d="M 11.1718 13.8957 l -1.7968 -2.3957 l -1.875 2.5 l -1.375 -1.825 l -2.125 2.825 l 6.0731 0.0 Z" fill="#000000" stroke="none" stroke-width="0.0" stroke-linecap="butt" stroke-linejoin="miter" fill-rule="nonzero"/>
	<path d="M 22.7125 13.2875 C 22.5208 13.0958, 22.2833 13.0, 22.0 13.0 h -1.4694 c 0.042 0.1667, 0.0704 0.3335, 0.0704 0.5003 c 0.0 0.2697, -0.0488 0.5454, -0.1464 0.8273 C 20.3682 14.5771, 20.2258 14.7985, 20.0439 15.0 H 21.0 v 2.0 h -2.0 v -0.9357 l -1.9887 1.9972 c 0.0139 0.2544, 0.0996 0.4744, 0.2762 0.6511 C 17.4792 18.9042, 17.7167 19.0, 18.0 19.0 h 4.0 c 0.2833 0.0, 0.5208 -0.0958, 0.7125 -0.2875 C 22.9042 18.5208, 23.0 18.2833, 23.0 18.0 v -4.0 C 23.0 13.7167, 22.9042 13.4792, 22.7125 13.2875 Z" fill="#000000" stroke="none" stroke-width="0.0" stroke-linecap="butt" stroke-linejoin="miter" fill-rule="nonzero"/>
</svg>
