<?xml version="1.0" ?>
<svg xmlns="http://www.w3.org/2000/svg" width="24.0" height="24.0" viewBox="0 0 24.0 24.0">
	<path d="M 2.5 19.6 L 3.8 20.2 V 11.2 L 1.4 17.0 C 1.0 18.1, 1.5 19.2, 2.5 19.6 M 15.2 4.8 L 20.2 16.8 L 12.9 19.8 L 7.9 7.9 V 7.8 L 15.2 4.8 M 15.3 2.8 C 15.0 2.8, 14.8 2.8, 14.5 2.9 L 7.1 6.0 C 6.4 6.3, 5.9 7.0, 5.9 7.8 C 5.9 8.0, 5.9 8.3, 6.0 8.6 L 11.0 20.5 C 11.3 21.3, 12.0 21.7, 12.8 21.7 C 13.1 21.7, 13.3 21.7, 13.6 21.6 L 21.0 18.5 C 22.0 18.1, 22.5 16.9, 22.1 15.9 L 17.1 4.0 C 16.8 3.2, 16.0 2.8, 15.3 2.8 M 10.5 9.9 C 9.9 9.9, 9.5 9.5, 9.5 8.9 S 9.9 7.9, 10.5 7.9 C 11.1 7.9, 11.5 8.4, 11.5 8.9 S 11.1 9.9, 10.5 9.9 M 5.9 19.8 C 5.9 20.9, 6.8 21.8, 7.9 21.8 H 9.3 L 5.9 13.5 V 19.8 Z" fill="#000000" stroke="none" stroke-width="0.0" stroke-linecap="strokecap" stroke-linejoin="strokejoin" fill-rule="nonzero"/>
</svg>
