<?xml version="1.0" ?>
<svg xmlns="http://www.w3.org/2000/svg" width="24.0" height="24.0" viewBox="0 0 960.0 960.0">
	<path d="M 600 880 L 600 780 L 320 640 L 120 640 L 120 400 L 292 400 L 400 276 L 400 80 L 640 80 L 640 320 L 468 320 L 360 444 L 360 570 L 600 690 L 600 640 L 840 640 L 840 880 L 600 880 Z M 480 240 L 560 240 L 560 160 L 480 160 L 480 240 Z M 200 560 L 280 560 L 280 480 L 200 480 L 200 560 Z M 680 800 L 760 800 L 760 720 L 680 720 L 680 800 Z M 520 200 L 520 200 L 520 200 L 520 200 Z M 240 520 L 240 520 L 240 520 L 240 520 Z M 720 760 L 720 760 L 720 760 L 720 760 Z" fill="#000000" stroke="none"/>
</svg>
