<?xml version="1.0" ?>
<svg xmlns="http://www.w3.org/2000/svg" width="24.0" height="24.0" viewBox="0 0 24.0 24.0">
	<path d="M 6.757 13.855 c -0.409 0, -0.741 -0.332, -0.741 -0.741 v -2.965 h 0.741 v 2.965 h 0.741 v -2.594 h 0.741 v 2.594 h 0.741 v -2.965 h 0.741 v 2.965 c 0 0.409, -0.332 0.741, -0.741 0.741 H 6.757 Z" fill="#000000" stroke="none"/>
	<path d="M 10.252 10.145 v 3.706 h 2.224 v -0.741 h -1.483 v -0.741 h 1.483 v -0.741 h -1.483 v -0.741 h 1.483 v -0.741 H 10.252 Z" fill="#000000" stroke="none"/>
	<path d="M 15.23 11.446 v -0.556 c 0 -0.409, -0.332 -0.741, -0.741 -0.741 h -1.483 v 3.706 h 1.483 c 0.409 0, 0.741 -0.332, 0.741 -0.741 v -0.556 c 0 -0.297, -0.259 -0.556, -0.556 -0.556 C 14.971 12.002, 15.23 11.742, 15.23 11.446 M 14.489 13.114 h -0.741 v -0.741 h 0.741 V 13.114 M 14.489 11.631 h -0.741 v -0.741 h 0.741 V 11.631 Z" fill="#000000" stroke="none"/>
	<path d="M 15.761 10.148 v 3.706 h 0.741 v -1.483 h 0.741 c 0.409 0, 0.741 -0.332, 0.741 -0.741 v -0.741 c 0 -0.409, -0.332 -0.741, -0.741 -0.741 H 15.761 M 16.502 10.89 h 0.741 v 0.741 h -0.741 V 10.89 Z" fill="#000000" stroke="none"/>
	<path d="M 19 3 H 5 C 3.89 3, 3 3.89, 3 5 v 14 c 0 1.105, 0.895 2, 2 2 h 14 c 1.105 0, 2 -0.895, 2 -2 V 5 C 21 3.89, 20.1 3, 19 3 M 19 5 v 14 H 5 V 5 H 19 Z" fill="#000000" stroke="none"/>
</svg>
